<svg width="25" height="25" viewBox="0 0 25 25" fill="none" xmlns="http://www.w3.org/2000/svg">
<g id="trash 1" clip-path="url(#clip0_176_1610)">
<path id="Vector" d="M22.6502 5.58796L22.0982 3.93333C21.888 3.30315 21.3003 2.87971 20.6362 2.87971H15.997V1.36929C15.997 0.614357 15.3832 0 14.6284 0H10.38C9.62546 0 9.01149 0.614357 9.01149 1.36929V2.87971H4.37243C3.7081 2.87971 3.12045 3.30315 2.91026 3.93333L2.35827 5.58796C2.23258 5.96466 2.29628 6.3818 2.52841 6.70395C2.76053 7.0261 3.13609 7.21855 3.5332 7.21855H4.11017L5.38008 22.9219C5.4745 24.0871 6.46327 25 7.63152 25H17.6346C18.8027 25 19.7916 24.0871 19.8859 22.9218L21.1558 7.21855H21.4752C21.8724 7.21855 22.2479 7.0261 22.48 6.70414C22.7122 6.38199 22.7759 5.96466 22.6502 5.58796ZM10.4763 1.46484H14.5321V2.87971H10.4763V1.46484ZM18.4258 22.8037C18.3926 23.214 18.0451 23.5352 17.6346 23.5352H7.63152C7.22106 23.5352 6.87354 23.214 6.84035 22.8037L5.57978 7.21855H19.6862L18.4258 22.8037ZM3.84734 5.75371L4.29995 4.39682C4.31025 4.36554 4.33944 4.34456 4.37243 4.34456H20.6362C20.6692 4.34456 20.6982 4.36554 20.7087 4.39682L21.1613 5.75371H3.84734Z" fill="#FF0742"/>
<path id="Vector_2" d="M16.0898 22.7518C16.1028 22.7525 16.1156 22.7527 16.1286 22.7527C16.5156 22.7527 16.839 22.4494 16.8593 22.0584L17.5471 8.85539C17.568 8.45141 17.2575 8.10675 16.8537 8.08577C16.4488 8.06422 16.1053 8.37512 16.0841 8.77909L15.3965 21.9821C15.3755 22.3861 15.6859 22.7308 16.0898 22.7518Z" fill="#FF0742"/>
<path id="Vector_3" d="M8.18225 22.0603C8.20361 22.4507 8.52671 22.7528 8.91295 22.7528C8.9263 22.7528 8.94003 22.7524 8.95358 22.7517C9.35736 22.7297 9.66692 22.3845 9.64499 21.9805L8.92458 8.77749C8.90265 8.37351 8.55742 8.06395 8.15345 8.08608C7.74966 8.10801 7.4401 8.45324 7.46203 8.85722L8.18225 22.0603Z" fill="#FF0742"/>
<path id="Vector_4" d="M12.5122 22.7529C12.9168 22.7529 13.2446 22.425 13.2446 22.0204V8.81738C13.2446 8.41283 12.9168 8.08496 12.5122 8.08496C12.1077 8.08496 11.7798 8.41283 11.7798 8.81738V22.0204C11.7798 22.425 12.1077 22.7529 12.5122 22.7529Z" fill="#FF0742"/>
</g>
<defs>
<clipPath id="clip0_176_1610">
<rect width="25" height="25" fill="white"/>
</clipPath>
</defs>
</svg>
